<svg width="75" height="60" viewBox="0 0 75 60" fill="none" xmlns="http://www.w3.org/2000/svg">
<rect x="1" y="1" width="58" height="58" stroke="#F9F01E" stroke-width="2"/>
<path d="M27.9414 54.6831C28.0387 53.8875 27.6134 53.3035 26.6655 52.9312L25.4531 52.4932L25.0596 52.3345C23.8577 51.8224 23.3013 51.0671 23.3901 50.0684C23.4282 49.5775 23.6017 49.1458 23.9106 48.7734C24.2196 48.401 24.6258 48.1154 25.1294 47.9165C25.6372 47.7134 26.1746 47.6182 26.7417 47.6309C27.2876 47.6436 27.7743 47.7705 28.2017 48.0117C28.6333 48.2487 28.9549 48.5745 29.1665 48.9893C29.3823 49.404 29.467 49.8716 29.4204 50.3921H28.6396C28.6989 49.7658 28.5508 49.2643 28.1953 48.8877C27.8441 48.5111 27.3468 48.3143 26.7036 48.2974C26.035 48.2889 25.4616 48.4434 24.9834 48.7607C24.5094 49.0739 24.2386 49.5034 24.1709 50.0493C24.1159 50.4852 24.2428 50.8576 24.5518 51.1665C24.8649 51.4712 25.4066 51.7378 26.1768 51.9663C27.1585 52.2795 27.8398 52.654 28.2207 53.0898C28.6058 53.5257 28.7729 54.0505 28.7222 54.6641C28.6756 55.1719 28.4979 55.6141 28.189 55.9907C27.88 56.3631 27.4674 56.6488 26.9512 56.8477C26.4349 57.0465 25.8805 57.1396 25.2881 57.127C24.6999 57.1227 24.1688 57.0021 23.6948 56.7651C23.2251 56.5282 22.8717 56.2044 22.6348 55.7939C22.402 55.3792 22.3089 54.901 22.3555 54.3594H23.1299C23.0664 55.0026 23.2378 55.5146 23.644 55.8955C24.0545 56.2721 24.6152 56.4647 25.3262 56.4731C26.0371 56.4816 26.6338 56.3208 27.1162 55.9907C27.6029 55.6606 27.8779 55.2248 27.9414 54.6831ZM30.0171 53.5024C30.0933 52.8381 30.2964 52.2308 30.6265 51.6807C30.9565 51.1263 31.367 50.7052 31.8579 50.4175C32.353 50.1297 32.8883 49.9922 33.4639 50.0049C34.0309 50.0133 34.5133 50.1699 34.9111 50.4746C35.3132 50.7751 35.6051 51.1877 35.7871 51.7124C35.9733 52.2329 36.0368 52.8105 35.9775 53.4453L35.9648 53.5659C35.8379 54.6493 35.4528 55.5189 34.8096 56.1748C34.1706 56.8307 33.4025 57.1481 32.5054 57.127C31.7352 57.1143 31.1195 56.8307 30.6582 56.2764C30.1969 55.722 29.9705 54.9899 29.979 54.0801L29.998 53.7183L30.0171 53.5024ZM30.7534 53.7183C30.6984 54.2218 30.7344 54.6873 30.8613 55.1147C30.9925 55.5379 31.1999 55.8701 31.4834 56.1113C31.7669 56.3525 32.1203 56.4795 32.5435 56.4922C33.0005 56.5007 33.4173 56.3843 33.7939 56.1431C34.1748 55.9019 34.488 55.5612 34.7334 55.1211C34.9788 54.681 35.1375 54.1943 35.2095 53.6611L35.2285 53.4517C35.3047 52.6349 35.1777 51.9684 34.8477 51.4521C34.5218 50.9316 34.0479 50.665 33.4258 50.6523C32.7487 50.6312 32.1626 50.8936 31.6675 51.4395C31.1766 51.9811 30.8761 52.7026 30.7661 53.604L30.7534 53.7183ZM37.812 57H37.0503L38.7451 47.25H39.5068L37.812 57ZM44.4199 56.1367C43.874 56.8223 43.1208 57.1523 42.1602 57.127C41.5127 57.1143 41.0303 56.8815 40.7129 56.4287C40.3955 55.9717 40.2812 55.339 40.3701 54.5308L41.1064 50.1318H41.8555L41.1255 54.5498C41.1001 54.7783 41.098 55.0047 41.1191 55.229C41.1488 55.6183 41.2651 55.9188 41.4683 56.1304C41.6714 56.342 41.9507 56.4541 42.3062 56.4668C42.814 56.488 43.2837 56.3716 43.7153 56.1177C44.147 55.8595 44.4263 55.5231 44.5532 55.1084L45.4038 50.1318H46.1655L44.9722 57H44.2358L44.4199 56.1367ZM49.5171 48.3735L49.2124 50.1318H50.5898L50.4819 50.7539H49.1045L48.3428 55.3369L48.3301 55.7305C48.3301 56.1917 48.5417 56.4287 48.9648 56.4414C49.096 56.4456 49.3013 56.4308 49.5806 56.397L49.5488 57.019C49.2992 57.091 49.0452 57.1227 48.7871 57.1143C48.3428 57.1058 48.019 56.9513 47.8159 56.6509C47.6128 56.3462 47.5387 55.9061 47.5938 55.3306L48.3491 50.7539H47.1177L47.2319 50.1318H48.4507L48.7617 48.3735H49.5171ZM51.8149 57H51.0532L52.2529 50.1318H53.0083L51.8149 57ZM52.4624 48.145C52.4836 47.87 52.6655 47.6965 53.0083 47.6245C53.1733 47.6541 53.2897 47.707 53.3574 47.7832C53.4294 47.8551 53.4759 47.9757 53.4971 48.145C53.4548 48.3058 53.3934 48.4243 53.313 48.5005C53.2326 48.5724 53.112 48.6253 52.9512 48.6592C52.6084 48.6084 52.4455 48.437 52.4624 48.145ZM54.0493 53.5024C54.1255 52.8381 54.3286 52.2308 54.6587 51.6807C54.9888 51.1263 55.3993 50.7052 55.8901 50.4175C56.3853 50.1297 56.9206 49.9922 57.4961 50.0049C58.0632 50.0133 58.5456 50.1699 58.9434 50.4746C59.3454 50.7751 59.6374 51.1877 59.8193 51.7124C60.0055 52.2329 60.069 52.8105 60.0098 53.4453L59.9971 53.5659C59.8701 54.6493 59.485 55.5189 58.8418 56.1748C58.2028 56.8307 57.4347 57.1481 56.5376 57.127C55.7674 57.1143 55.1517 56.8307 54.6904 56.2764C54.2292 55.722 54.0028 54.9899 54.0112 54.0801L54.0303 53.7183L54.0493 53.5024ZM54.7856 53.7183C54.7306 54.2218 54.7666 54.6873 54.8936 55.1147C55.0247 55.5379 55.2321 55.8701 55.5156 56.1113C55.7992 56.3525 56.1525 56.4795 56.5757 56.4922C57.0327 56.5007 57.4495 56.3843 57.8262 56.1431C58.207 55.9019 58.5202 55.5612 58.7656 55.1211C59.0111 54.681 59.1698 54.1943 59.2417 53.6611L59.2607 53.4517C59.3369 52.6349 59.21 51.9684 58.8799 51.4521C58.554 50.9316 58.0801 50.665 57.458 50.6523C56.7809 50.6312 56.1948 50.8936 55.6997 51.4395C55.2088 51.9811 54.9084 52.7026 54.7983 53.604L54.7856 53.7183ZM62.917 50.1318L62.6885 51.3062C62.9932 50.883 63.3444 50.5592 63.7422 50.335C64.1442 50.1064 64.5737 49.9964 65.0308 50.0049C65.6909 50.0218 66.1712 50.2524 66.4717 50.6968C66.7721 51.1411 66.8779 51.7526 66.7891 52.5312L66.04 57H65.291L66.04 52.5186C66.0654 52.2773 66.0697 52.0446 66.0527 51.8203C65.9808 51.0671 65.5703 50.6799 64.8213 50.6587C64.377 50.6502 63.9622 50.7835 63.5771 51.0586C63.1921 51.3294 62.8535 51.7399 62.5615 52.29L61.749 57H61L62.1934 50.1318H62.917ZM72.3369 55.21C72.4046 54.626 72.0492 54.2028 71.2705 53.9404L70.1787 53.6167C69.1758 53.2782 68.7018 52.7132 68.7568 51.9219C68.7865 51.3506 69.0488 50.8872 69.5439 50.5317C70.0433 50.172 70.6357 49.9964 71.3213 50.0049C71.9941 50.0133 72.54 50.2038 72.959 50.5762C73.3779 50.9443 73.5726 51.4373 73.543 52.0552H72.7939C72.8193 51.6447 72.6903 51.3104 72.4067 51.0522C72.1274 50.7941 71.755 50.6608 71.2896 50.6523C70.8071 50.6523 70.4009 50.7666 70.0708 50.9951C69.7407 51.2194 69.5545 51.5177 69.5122 51.8901C69.4487 52.436 69.783 52.819 70.5151 53.0391L71.3086 53.2676L71.7339 53.4136C72.6903 53.7733 73.141 54.3594 73.0859 55.1719C73.0521 55.722 72.813 56.1748 72.3687 56.5303C71.9285 56.8815 71.3594 57.0783 70.6611 57.1206L70.4009 57.127C69.9396 57.1185 69.5228 57.0296 69.1504 56.8604C68.778 56.6868 68.4924 56.4456 68.2935 56.1367C68.0946 55.8278 68.0078 55.4723 68.0332 55.0703L68.7886 55.0767C68.7886 55.5083 68.9346 55.849 69.2266 56.0986C69.5186 56.3483 69.9206 56.4774 70.4326 56.4858C70.9404 56.4858 71.3721 56.3716 71.7275 56.1431C72.083 55.9103 72.2861 55.5993 72.3369 55.21Z" fill="black"/>
<path d="M36.2188 34.6172L39.6641 16.4062H44.9199L39.2422 42H33.9336L29.7676 24.8789L25.6016 42H20.293L14.6152 16.4062H19.8711L23.334 34.582L27.5527 16.4062H32.0176L36.2188 34.6172Z" fill="black"/>
<path d="M50.1367 42.2344C48.2773 42.2344 46.7617 41.6641 45.5898 40.5234C44.4258 39.3828 43.8438 37.8633 43.8438 35.9648V35.6367C43.8438 34.3633 44.0898 33.2266 44.582 32.2266C45.0742 31.2188 45.7695 30.4453 46.668 29.9062C47.5742 29.3594 48.6055 29.0859 49.7617 29.0859C51.4961 29.0859 52.8594 29.6328 53.8516 30.7266C54.8516 31.8203 55.3516 33.3711 55.3516 35.3789V36.7617H47.2773C47.3867 37.5898 47.7148 38.2539 48.2617 38.7539C48.8164 39.2539 49.5156 39.5039 50.3594 39.5039C51.6641 39.5039 52.6836 39.0312 53.418 38.0859L55.082 39.9492C54.5742 40.668 53.8867 41.2305 53.0195 41.6367C52.1523 42.0352 51.1914 42.2344 50.1367 42.2344ZM49.75 31.8281C49.0781 31.8281 48.5312 32.0547 48.1094 32.5078C47.6953 32.9609 47.4297 33.6094 47.3125 34.4531H52.0234V34.1836C52.0078 33.4336 51.8047 32.8555 51.4141 32.4492C51.0234 32.0352 50.4688 31.8281 49.75 31.8281ZM68.7109 35.7773C68.7109 37.8086 68.2773 39.3945 67.4102 40.5352C66.543 41.668 65.332 42.2344 63.7773 42.2344C62.4023 42.2344 61.3047 41.707 60.4844 40.6523L60.332 42H57.2852V24H60.6719V30.457C61.4531 29.543 62.4805 29.0859 63.7539 29.0859C65.3008 29.0859 66.5117 29.6562 67.3867 30.7969C68.2695 31.9297 68.7109 33.5273 68.7109 35.5898V35.7773ZM65.3242 35.5312C65.3242 34.25 65.1211 33.3164 64.7148 32.7305C64.3086 32.1367 63.7031 31.8398 62.8984 31.8398C61.8203 31.8398 61.0781 32.2812 60.6719 33.1641V38.168C61.0859 39.0586 61.8359 39.5039 62.9219 39.5039C64.0156 39.5039 64.7344 38.9648 65.0781 37.8867C65.2422 37.3711 65.3242 36.5859 65.3242 35.5312Z" fill="black"/>
</svg>
